<?xml version="1.0" encoding="UTF-8" standalone="no"?>
<!DOCTYPE svg PUBLIC "-//W3C//DTD SVG 1.1//EN" "http://www.w3.org/Graphics/SVG/1.1/DTD/svg11.dtd">
<svg xmlns:dc="http://purl.org/dc/elements/1.1/" version="1.1" xmlns:xl="http://www.w3.org/1999/xlink" xmlns="http://www.w3.org/2000/svg" viewBox="0 0 1200 300" width="1200" height="300" alt="Text reads: Mentor Matching Online">
  <defs/>
  <g id="Canvas_4" stroke-dasharray="none" fill-opacity="1" fill="none" stroke="none" stroke-opacity="1">
    <title>Canvas 4</title>
    <rect fill="#373151" x="0" y="0" width="1200" height="300"/>
    <g id="Canvas_4_Layer_1">
      <title>Layer 1</title>
      <g id="Graphic_24">
        <path d="M 30 196.54432 L 30 261.40575 L 43.353823 261.40575 L 43.353823 215.89374 L 43.53551 215.89374 L 59.432916 261.40575 L 70.42484 261.40575 L 86.32225 215.43952 L 86.50393 215.43952 L 86.50393 261.40575 L 99.85775 261.40575 L 99.85775 196.54432 L 79.7816 196.54432 L 65.42851 241.1479 L 65.246825 241.1479 L 50.076156 196.54432 Z M 142.6445 232.88125 L 121.65991 232.88125 C 121.72048 231.97282 121.9173 230.9433 122.25039 229.7926 C 122.58348 228.64194 123.15881 227.55184 123.9764 226.5223 C 124.79398 225.49274 125.88408 224.62974 127.24672 223.93328 C 128.60936 223.23682 130.3202 222.8886 132.37931 222.8886 C 135.52853 222.8886 137.87526 223.73645 139.41959 225.43218 C 140.96392 227.1279 142.03887 229.6109 142.6445 232.88125 Z M 121.65991 241.05706 L 155.5441 241.05706 C 155.78635 237.42335 155.48355 233.9411 154.63568 230.6102 C 153.78781 227.2793 152.41005 224.3118 150.50235 221.70765 C 148.59466 219.10349 146.15708 217.02927 143.18955 215.48495 C 140.22202 213.94062 136.73976 213.16847 132.74268 213.16847 C 129.16953 213.16847 125.91438 213.80436 122.97713 215.07616 C 120.03988 216.34795 117.51146 218.08908 115.39179 220.2996 C 113.27213 222.5101 111.63698 225.12936 110.48631 228.15745 C 109.33563 231.18554 108.7603 234.45584 108.7603 237.96842 C 108.7603 241.60213 109.32049 244.933 110.44089 247.96108 C 111.56128 250.98917 113.151 253.5933 115.21011 255.77352 C 117.26921 257.95375 119.78249 259.6343 122.75002 260.81527 C 125.71755 261.99623 129.0484 262.5867 132.74268 262.5867 C 138.07212 262.5867 142.6142 261.37548 146.36903 258.953 C 150.12386 256.53053 152.90967 252.50322 154.72652 246.87097 L 143.37123 246.87097 C 142.9473 248.32446 141.79664 249.70222 139.91922 251.0043 C 138.0418 252.30638 135.80105 252.9574 133.19689 252.9574 C 129.56318 252.9574 126.77737 252.0187 124.8394 250.1413 C 122.90142 248.26388 121.8416 245.23583 121.65991 241.05706 Z M 176.07447 236.78747 C 176.07447 232.0031 176.86176 228.56625 178.43637 226.47687 C 180.01098 224.38748 182.55454 223.3428 186.06713 223.3428 C 189.15578 223.3428 191.3057 224.29664 192.51693 226.20434 C 193.72817 228.11204 194.33378 231.00383 194.33378 234.87978 L 194.33378 261.40575 L 207.2334 261.40575 L 207.2334 232.51788 C 207.2334 229.61091 206.976 226.96137 206.46123 224.56918 C 205.94646 222.17699 205.05318 220.1482 203.78138 218.48274 C 202.50958 216.8173 200.76846 215.51523 198.55795 214.57652 C 196.34744 213.63781 193.51622 213.16847 190.0642 213.16847 C 187.3389 213.16847 184.67422 213.78922 182.07006 215.03073 C 179.4659 216.27225 177.34627 218.25562 175.7111 220.9809 L 175.43857 220.9809 L 175.43857 214.44026 L 163.17486 214.44026 L 163.17486 261.40575 L 176.07447 261.40575 L 176.07447 236.78747 Z M 233.39598 214.44026 L 233.39598 200.3597 L 220.49637 200.3597 L 220.49637 214.44026 L 212.68393 214.44026 L 212.68393 223.07028 L 220.49637 223.07028 L 220.49637 250.7772 C 220.49637 253.1391 220.89002 255.04677 221.67732 256.50026 C 222.46463 257.95374 223.53958 259.07412 224.90222 259.86143 C 226.26487 260.64873 227.83945 261.17864 229.62603 261.45117 C 231.4126 261.7237 233.30513 261.85996 235.30367 261.85996 C 236.57547 261.85996 237.87753 261.82968 239.2099 261.7691 C 240.54225 261.70855 241.75347 261.58743 242.84359 261.40575 L 242.84359 251.4131 C 242.23797 251.5342 241.60208 251.62505 240.9359 251.68562 C 240.26972 251.74618 239.57326 251.77646 238.84652 251.77646 C 236.6663 251.77646 235.21283 251.4131 234.4861 250.68635 C 233.75935 249.9596 233.39598 248.50614 233.39598 246.32592 L 233.39598 223.07028 L 242.84359 223.07028 L 242.84359 214.44026 Z M 260.467 237.96842 L 260.467 237.96842 C 260.467 236.091 260.64868 234.2439 261.01205 232.42704 C 261.37542 230.61019 261.99617 229.00532 262.87432 227.6124 C 263.75247 226.21947 264.91826 225.08396 266.37175 224.2058 C 267.82523 223.32766 269.64206 222.8886 271.8223 222.8886 C 274.0025 222.8886 275.8345 223.32766 277.31825 224.2058 C 278.802 225.08396 279.98295 226.21947 280.8611 227.6124 C 281.73925 229.00532 282.36 230.61019 282.72337 232.42704 C 283.08674 234.2439 283.26842 236.091 283.26842 237.96842 C 283.26842 239.84584 283.08674 241.6778 282.72337 243.46438 C 282.36 245.25096 281.73925 246.85582 280.8611 248.27903 C 279.98295 249.70223 278.802 250.83775 277.31825 251.68562 C 275.8345 252.53348 274.0025 252.9574 271.8223 252.9574 C 269.64206 252.9574 267.82523 252.53348 266.37175 251.68562 C 264.91826 250.83775 263.75247 249.70223 262.87432 248.27903 C 261.99617 246.85582 261.37542 245.25096 261.01205 243.46438 C 260.64868 241.6778 260.467 239.84584 260.467 237.96842 Z M 247.5674 237.96842 C 247.5674 241.72326 248.14272 245.11467 249.2934 248.14276 C 250.44407 251.17086 252.0792 253.75984 254.19888 255.90978 C 256.31854 258.05973 258.8621 259.71002 261.82963 260.8607 C 264.79716 262.01137 268.12802 262.5867 271.8223 262.5867 C 275.51656 262.5867 278.86256 262.01137 281.86037 260.8607 C 284.85818 259.71002 287.41688 258.05973 289.53654 255.90978 C 291.6562 253.75984 293.29135 251.17086 294.44203 248.14276 C 295.5927 245.11467 296.16803 241.72326 296.16803 237.96842 C 296.16803 234.2136 295.5927 230.80703 294.44203 227.74866 C 293.29135 224.6903 291.6562 222.08617 289.53654 219.93622 C 287.41688 217.78627 284.85818 216.12085 281.86037 214.9399 C 278.86256 213.75894 275.51656 213.16847 271.8223 213.16847 C 268.12802 213.16847 264.79716 213.75894 261.82963 214.9399 C 258.8621 216.12085 256.31854 217.78627 254.19888 219.93622 C 252.0792 222.08617 250.44407 224.6903 249.2934 227.74866 C 248.14272 230.80703 247.5674 234.2136 247.5674 237.96842 Z M 304.52553 214.44026 L 304.52553 261.40575 L 317.42514 261.40575 L 317.42514 240.23948 C 317.42514 238.11982 317.6371 236.15159 318.06104 234.33473 C 318.48497 232.51787 319.19656 230.92815 320.19583 229.5655 C 321.1951 228.20287 322.5123 227.1279 324.14747 226.3406 C 325.78264 225.5533 327.78115 225.15965 330.14307 225.15965 C 330.93037 225.15965 331.74794 225.20508 332.5958 225.29592 C 333.44368 225.38676 334.1704 225.49274 334.77603 225.61387 L 334.77603 213.62268 C 333.74647 213.31987 332.80778 213.16847 331.9599 213.16847 C 330.32474 213.16847 328.75016 213.4107 327.2361 213.8952 C 325.72207 214.3797 324.2989 215.061 322.96652 215.93916 C 321.63416 216.8173 320.45322 217.87712 319.42367 219.11864 C 318.39412 220.36016 317.57655 221.70764 316.97093 223.16112 L 316.78924 223.16112 L 316.78924 214.44026 Z M 366.48 196.54432 L 366.48 261.40575 L 379.83382 261.40575 L 379.83382 215.89374 L 380.0155 215.89374 L 395.9129 261.40575 L 406.90484 261.40575 L 422.80225 215.43952 L 422.98393 215.43952 L 422.98393 261.40575 L 436.33775 261.40575 L 436.33775 196.54432 L 416.2616 196.54432 L 401.9085 241.1479 L 401.72683 241.1479 L 386.55616 196.54432 Z M 489.6622 226.5223 L 489.6622 226.5223 C 489.6622 223.67588 489.0263 221.3897 487.7545 219.6637 C 486.4827 217.93768 484.84757 216.5902 482.849 215.6212 C 480.8505 214.65222 478.64 214.0012 476.21754 213.6681 C 473.79506 213.335 471.4029 213.16847 469.041 213.16847 C 466.43683 213.16847 463.84785 213.42585 461.274 213.94063 C 458.7001 214.4554 456.38364 215.3184 454.32454 216.52963 C 452.26543 217.74087 450.5697 219.34574 449.23737 221.34428 C 447.905 223.34282 447.148 225.8561 446.9663 228.8842 L 459.8659 228.8842 C 460.10817 226.3406 460.956 224.52376 462.4095 223.43365 C 463.863 222.34354 465.8615 221.7985 468.4051 221.7985 C 469.5558 221.7985 470.63073 221.8742 471.63 222.0256 C 472.62927 222.177 473.5074 222.4798 474.2644 222.93402 C 475.02145 223.38823 475.62706 224.02412 476.0813 224.8417 C 476.5355 225.6593 476.7626 226.76453 476.7626 228.15745 C 476.82315 229.4898 476.4295 230.5042 475.58164 231.20067 C 474.7338 231.89713 473.5831 232.42704 472.12963 232.7904 C 470.67615 233.15378 469.0107 233.4263 467.1333 233.608 C 465.2559 233.78968 463.3482 234.03192 461.41024 234.33473 C 459.47226 234.63754 457.54945 235.04633 455.64175 235.5611 C 453.73405 236.07588 452.03834 236.84803 450.5546 237.87758 C 449.0708 238.90713 447.8596 240.2849 446.9209 242.0109 C 445.9822 243.73692 445.51283 245.93225 445.51283 248.59698 C 445.51283 251.01945 445.9216 253.1088 446.7392 254.8651 C 447.5568 256.6214 448.6923 258.07485 450.1458 259.22553 C 451.59927 260.3762 453.295 261.22406 455.23296 261.7691 C 457.17094 262.31417 459.2603 262.5867 461.5011 262.5867 C 464.40805 262.5867 467.2544 262.16277 470.04026 261.3149 C 472.8261 260.46704 475.24854 258.9833 477.30765 256.86363 C 477.3682 257.65093 477.4742 258.4231 477.6256 259.1801 C 477.777 259.93713 477.9738 260.679 478.21607 261.40575 L 491.29737 261.40575 C 490.69175 260.43676 490.2678 258.9833 490.0256 257.0453 C 489.7833 255.10733 489.6622 253.07854 489.6622 250.95888 Z M 476.7626 238.42263 L 476.7626 243.23728 C 476.7626 243.96402 476.6869 244.933 476.5355 246.14423 C 476.3841 247.35547 475.9753 248.55155 475.3091 249.7325 C 474.64293 250.91346 473.6134 251.92786 472.2205 252.77572 C 470.82755 253.6236 468.8593 254.04752 466.3157 254.04752 C 465.28617 254.04752 464.2869 253.95667 463.3179 253.775 C 462.34894 253.5933 461.5011 253.27536 460.77434 252.82114 C 460.0476 252.36693 459.47227 251.74618 459.04834 250.95888 C 458.6244 250.17157 458.41244 249.2026 458.41244 248.05192 C 458.41244 246.84069 458.6244 245.84143 459.04834 245.05413 C 459.47227 244.26682 460.03246 243.6158 460.7289 243.10102 C 461.4254 242.58624 462.24295 242.17745 463.18166 241.87464 C 464.12037 241.57183 465.0742 241.3296 466.0432 241.1479 C 467.07275 240.96622 468.1023 240.81482 469.13184 240.6937 C 470.1614 240.57257 471.1455 240.42117 472.0842 240.23948 C 473.0229 240.0578 473.90105 239.8307 474.71864 239.55816 C 475.5362 239.28564 476.21754 238.90713 476.7626 238.42263 Z M 516.0065 246.32592 L 516.0065 223.07028 L 525.4541 223.07028 L 525.4541 214.44026 L 516.0065 214.44026 L 516.0065 200.3597 L 503.10687 200.3597 L 503.10687 214.44026 L 495.2944 214.44026 L 495.2944 223.07028 L 503.10687 223.07028 L 503.10687 250.7772 C 503.10687 253.1391 503.5005 255.04677 504.2878 256.50026 C 505.0751 257.95374 506.1501 259.07412 507.5127 259.86143 C 508.87536 260.64873 510.44995 261.17864 512.2365 261.45117 C 514.0231 261.7237 515.9156 261.85996 517.91417 261.85996 C 519.18597 261.85996 520.488 261.82968 521.8204 261.7691 C 523.15275 261.70855 524.36397 261.58743 525.4541 261.40575 L 525.4541 251.4131 C 524.84846 251.5342 524.2126 251.62505 523.5464 251.68562 C 522.8802 251.74618 522.18376 251.77646 521.457 251.77646 C 519.2768 251.77646 517.8233 251.4131 517.0966 250.68635 C 516.36985 249.9596 516.0065 248.50614 516.0065 246.32592 Z M 563.60786 230.97356 L 576.23495 230.97356 C 576.05326 227.94547 575.3265 225.3262 574.0547 223.1157 C 572.7829 220.9052 571.13265 219.05809 569.1038 217.57432 C 567.075 216.09055 564.7737 214.98532 562.1998 214.25857 C 559.6259 213.53183 556.9461 213.16847 554.16026 213.16847 C 550.34486 213.16847 546.95345 213.80436 543.9859 215.07616 C 541.0184 216.34795 538.5051 218.11936 536.446 220.39043 C 534.3869 222.6615 532.82746 225.35646 531.7676 228.4754 C 530.7078 231.59434 530.1779 234.9706 530.1779 238.60432 C 530.1779 242.1169 530.7532 245.34178 531.9039 248.27903 C 533.05456 251.21628 534.6594 253.7447 536.7185 255.86436 C 538.77763 257.98403 541.2758 259.6343 544.213 260.81527 C 547.1503 261.99623 550.37514 262.5867 553.8877 262.5867 C 560.1256 262.5867 565.243 260.95155 569.2401 257.6812 C 573.2372 254.41087 575.6596 249.65683 576.5075 243.41896 L 564.0621 243.41896 C 563.63814 246.32593 562.59346 248.6424 560.928 250.3684 C 559.26256 252.0944 556.88554 252.9574 553.7969 252.9574 C 551.79835 252.9574 550.10264 252.5032 548.7097 251.59477 C 547.3168 250.68635 546.21156 249.52055 545.394 248.09734 C 544.5764 246.67414 543.9859 245.08441 543.62255 243.32812 C 543.2592 241.57183 543.0775 239.84584 543.0775 238.1501 C 543.0775 236.39381 543.2592 234.6224 543.62255 232.83583 C 543.9859 231.04926 544.6067 229.4141 545.4848 227.93035 C 546.36296 226.44658 547.4985 225.23536 548.8914 224.29665 C 550.2843 223.35794 552.0103 222.8886 554.0694 222.8886 C 559.58055 222.8886 562.76 225.58356 563.60786 230.97356 L 563.60786 230.97356 Z M 627.8334 232.51788 C 627.8334 229.61091 627.576 226.96137 627.0612 224.56918 C 626.54646 222.17699 625.6532 220.1482 624.3814 218.48274 C 623.1096 216.8173 621.36846 215.51523 619.15795 214.57652 C 616.94744 213.63781 614.1162 213.16847 610.6642 213.16847 C 608.2417 213.16847 605.7587 213.78922 603.2151 215.03073 C 600.6715 216.27225 598.5822 218.25562 596.947 220.9809 L 596.6745 220.9809 L 596.6745 196.54432 L 583.77486 196.54432 L 583.77486 261.40575 L 596.6745 261.40575 L 596.6745 236.78747 C 596.6745 232.0031 597.46176 228.56625 599.0364 226.47687 C 600.611 224.38748 603.15454 223.3428 606.6671 223.3428 C 609.7558 223.3428 611.9057 224.29664 613.1169 226.20434 C 614.3282 228.11204 614.9338 231.00383 614.9338 234.87978 L 614.9338 261.40575 L 627.8334 261.40575 L 627.8334 232.51788 Z M 650.90734 207.17287 L 650.90734 196.54432 L 638.0077 196.54432 L 638.0077 207.17287 Z M 638.0077 214.44026 L 638.0077 261.40575 L 650.90734 261.40575 L 650.90734 214.44026 Z M 661.0817 214.44026 L 661.0817 261.40575 L 673.9813 261.40575 L 673.9813 236.78747 C 673.9813 232.0031 674.7686 228.56625 676.3432 226.47687 C 677.9178 224.38748 680.4614 223.3428 683.97395 223.3428 C 687.0626 223.3428 689.2125 224.29664 690.42376 226.20434 C 691.635 228.11204 692.2406 231.00383 692.2406 234.87978 L 692.2406 261.40575 L 705.1402 261.40575 L 705.1402 232.51788 C 705.1402 229.61091 704.8828 226.96137 704.36806 224.56918 C 703.8533 222.17699 702.96 220.1482 701.6882 218.48274 C 700.4164 216.8173 698.6753 215.51523 696.4648 214.57652 C 694.2543 213.63781 691.423 213.16847 687.971 213.16847 C 685.2457 213.16847 682.58105 213.78922 679.9769 215.03073 C 677.3727 216.27225 675.2531 218.25562 673.6179 220.9809 L 673.3454 220.9809 L 673.3454 214.44026 Z M 736.8442 250.32298 L 736.8442 250.32298 C 734.84565 250.32298 733.1802 249.89905 731.8479 249.0512 C 730.5155 248.20332 729.44054 247.11322 728.623 245.78086 C 727.8054 244.4485 727.23004 242.94962 726.89695 241.28417 C 726.5639 239.61872 726.3973 237.93815 726.3973 236.24242 C 726.3973 234.48613 726.59414 232.80556 726.9878 231.20067 C 727.38145 229.59578 728.0173 228.1726 728.8955 226.93108 C 729.7736 225.68956 730.8637 224.70545 732.1658 223.9787 C 733.4679 223.25196 735.0273 222.8886 736.8442 222.8886 C 738.96386 222.8886 740.7201 223.28224 742.11305 224.06955 C 743.506 224.85685 744.62635 225.91667 745.4742 227.24903 C 746.3221 228.5814 746.9277 230.11055 747.2911 231.83657 C 747.6544 233.56258 747.8361 235.39455 747.8361 237.33253 C 747.8361 239.02826 747.609 240.64826 747.1548 242.1926 C 746.7006 243.73692 746.0193 245.11468 745.1108 246.32592 C 744.2024 247.53716 743.0518 248.50613 741.6588 249.23287 C 740.2659 249.9596 738.66105 250.32298 736.8442 250.32298 Z M 760.0998 258.40795 L 760.0998 214.44026 L 747.8361 214.44026 L 747.8361 220.70838 L 747.6544 220.70838 C 746.0798 217.9831 744.1267 216.04515 741.7951 214.89447 C 739.4635 213.7438 736.7534 213.16847 733.6647 213.16847 C 730.3944 213.16847 727.5026 213.80436 724.9893 215.07616 C 722.47595 216.34795 720.37146 218.0588 718.6757 220.20875 C 716.98 222.3587 715.6931 224.8417 714.8149 227.65782 C 713.9368 230.47394 713.4977 233.396 713.4977 236.4241 C 713.4977 239.63388 713.8762 242.67707 714.6332 245.55376 C 715.3903 248.43045 716.5863 250.94373 718.2215 253.09367 C 719.8567 255.24362 721.946 256.93932 724.4896 258.18084 C 727.0332 259.42236 730.0613 260.0431 733.5739 260.0431 C 736.4203 260.0431 739.1304 259.45264 741.70425 258.2717 C 744.2781 257.09073 746.2615 255.25876 747.6544 252.77572 L 747.8361 252.77572 L 747.8361 258.953 C 747.8967 262.2839 747.0942 265.03943 745.4288 267.21965 C 743.7633 269.39988 741.1138 270.48998 737.4801 270.48998 C 735.1787 270.48998 733.14994 270.02063 731.39365 269.08192 C 729.63736 268.1432 728.4564 266.46265 727.8508 264.04017 L 715.042 264.04017 C 715.2237 266.7049 715.9656 268.99107 717.2677 270.89877 C 718.56975 272.80647 720.2049 274.3659 722.17315 275.57715 C 724.1414 276.7884 726.3216 277.68166 728.7138 278.257 C 731.106 278.83234 733.4527 279.12 735.7541 279.12 C 741.1441 279.12 745.4439 278.39327 748.6537 276.9398 C 751.8635 275.4863 754.3162 273.7149 756.0119 271.6255 C 757.70765 269.53612 758.8129 267.28023 759.3277 264.85775 C 759.8424 262.43528 760.0998 260.28537 760.0998 258.40795 Z M 808.5188 229.24756 L 808.5188 229.24756 C 808.5188 226.40115 808.8367 223.64563 809.4726 220.9809 C 810.1085 218.31619 811.1229 215.93917 812.5159 213.84978 C 813.9088 211.7604 815.7256 210.09497 817.9664 208.85346 C 820.2072 207.61194 822.9324 206.9912 826.1422 206.9912 C 829.352 206.9912 832.0772 207.61194 834.318 208.85346 C 836.5588 210.09497 838.3756 211.7604 839.7686 213.84978 C 841.1615 215.93917 842.1759 218.31619 842.8118 220.9809 C 843.4477 223.64563 843.7656 226.40115 843.7656 229.24756 C 843.7656 231.97284 843.4477 234.62238 842.8118 237.19626 C 842.1759 239.77014 841.1615 242.0866 839.7686 244.1457 C 838.3756 246.2048 836.5588 247.8551 834.318 249.0966 C 832.0772 250.33813 829.352 250.95888 826.1422 250.95888 C 822.9324 250.95888 820.2072 250.33813 817.9664 249.0966 C 815.7256 247.8551 813.9088 246.2048 812.5159 244.1457 C 811.1229 242.0866 810.1085 239.77014 809.4726 237.19626 C 808.8367 234.62238 808.5188 231.97284 808.5188 229.24756 Z M 794.2565 229.24756 C 794.2565 233.97138 794.9833 238.3772 796.4368 242.46512 C 797.8902 246.55304 799.9796 250.111 802.7049 253.1391 C 805.4302 256.1672 808.7762 258.5442 812.743 260.27022 C 816.7098 261.99623 821.1761 262.85922 826.1422 262.85922 C 831.1688 262.85922 835.6503 261.99623 839.5869 260.27022 C 843.5234 258.5442 846.8542 256.1672 849.5795 253.1391 C 852.3048 250.111 854.3942 246.55304 855.8476 242.46512 C 857.3011 238.3772 858.0279 233.97138 858.0279 229.24756 C 858.0279 224.4026 857.3011 219.90596 855.8476 215.75747 C 854.3942 211.60899 852.3048 207.99047 849.5795 204.90181 C 846.8542 201.81316 843.5234 199.39072 839.5869 197.63443 C 835.6503 195.87813 831.1688 195 826.1422 195 C 821.1761 195 816.7098 195.87813 812.743 197.63443 C 808.7762 199.39072 805.4302 201.81316 802.7049 204.90181 C 799.9796 207.99047 797.8902 211.60899 796.4368 215.75747 C 794.9833 219.90596 794.2565 224.4026 794.2565 229.24756 Z M 866.3854 214.44026 L 866.3854 261.40575 L 879.285 261.40575 L 879.285 236.78747 C 879.285 232.0031 880.0723 228.56625 881.6469 226.47687 C 883.2215 224.38748 885.765 223.3428 889.2776 223.3428 C 892.3663 223.3428 894.5162 224.29664 895.7274 226.20434 C 896.9387 228.11204 897.5443 231.00383 897.5443 234.87978 L 897.5443 261.40575 L 910.4439 261.40575 L 910.4439 232.51788 C 910.4439 229.61091 910.1865 226.96137 909.6717 224.56918 C 909.157 222.17699 908.2637 220.1482 906.9919 218.48274 C 905.7201 216.8173 903.979 215.51523 901.7684 214.57652 C 899.5579 213.63781 896.7267 213.16847 893.2747 213.16847 C 890.5494 213.16847 887.8847 213.78922 885.2806 215.03073 C 882.6764 216.27225 880.5568 218.25562 878.9216 220.9809 L 878.6491 220.9809 L 878.6491 214.44026 Z M 920.6182 196.54432 L 920.6182 261.40575 L 933.5178 261.40575 L 933.5178 196.54432 Z M 956.9552 207.17287 L 956.9552 196.54432 L 944.0556 196.54432 L 944.0556 207.17287 Z M 944.0556 214.44026 L 944.0556 261.40575 L 956.9552 261.40575 L 956.9552 214.44026 Z M 980.0291 236.78747 C 980.0291 232.0031 980.8164 228.56625 982.391 226.47687 C 983.9656 224.38748 986.5092 223.3428 990.0218 223.3428 C 993.1104 223.3428 995.2603 224.29664 996.4716 226.20434 C 997.6828 228.11204 998.2884 231.00383 998.2884 234.87978 L 998.2884 261.40575 L 1011.188 261.40575 L 1011.188 232.51788 C 1011.188 229.61091 1010.9307 226.96137 1010.4159 224.56918 C 1009.9011 222.17699 1009.0078 220.1482 1007.736 218.48274 C 1006.4642 216.8173 1004.7231 215.51523 1002.5126 214.57652 C 1000.3021 213.63781 997.4709 213.16847 994.0188 213.16847 C 991.2936 213.16847 988.6289 213.78922 986.0247 215.03073 C 983.4205 216.27225 981.3009 218.25562 979.6657 220.9809 L 979.3932 220.9809 L 979.3932 214.44026 L 967.1295 214.44026 L 967.1295 261.40575 L 980.0291 261.40575 L 980.0291 236.78747 Z M 1052.6121 232.88125 L 1031.6276 232.88125 C 1031.6881 231.97282 1031.885 230.9433 1032.218 229.7926 C 1032.5511 228.64194 1033.1265 227.55184 1033.944 226.5223 C 1034.7616 225.49274 1035.8517 224.62974 1037.2144 223.93328 C 1038.577 223.23682 1040.2879 222.8886 1042.347 222.8886 C 1045.4962 222.8886 1047.8429 223.73645 1049.3872 225.43218 C 1050.9316 227.1279 1052.0065 229.6109 1052.6121 232.88125 Z M 1031.6276 241.05706 L 1065.5117 241.05706 C 1065.754 237.42335 1065.4512 233.9411 1064.6033 230.6102 C 1063.7555 227.2793 1062.3777 224.3118 1060.47 221.70765 C 1058.5623 219.10349 1056.1247 217.02927 1053.1572 215.48495 C 1050.1897 213.94062 1046.7074 213.16847 1042.7103 213.16847 C 1039.1372 213.16847 1035.882 213.80436 1032.9448 215.07616 C 1030.0075 216.34795 1027.4791 218.08908 1025.3594 220.2996 C 1023.2398 222.5101 1021.6046 225.12936 1020.454 228.15745 C 1019.3033 231.18554 1018.728 234.45584 1018.728 237.96842 C 1018.728 241.60213 1019.2881 244.933 1020.4085 247.96108 C 1021.5289 250.98917 1023.1187 253.5933 1025.1778 255.77352 C 1027.2369 257.95375 1029.7501 259.6343 1032.7177 260.81527 C 1035.6852 261.99623 1039.016 262.5867 1042.7103 262.5867 C 1048.0398 262.5867 1052.5818 261.37548 1056.3367 258.953 C 1060.0915 256.53053 1062.8773 252.50322 1064.6942 246.87097 L 1053.3389 246.87097 C 1052.915 248.32446 1051.7643 249.70222 1049.8869 251.0043 C 1048.0095 252.30638 1045.7687 252.9574 1043.1645 252.9574 C 1039.5308 252.9574 1036.745 252.0187 1034.807 250.1413 C 1032.8691 248.26388 1031.8092 245.23583 1031.6276 241.05706 Z" fill="#ebe9e8"/>
      </g>
    </g>
  </g>
</svg>
